<svg xmlns="http://www.w3.org/2000/svg" viewBox="0 0 167.19 153.79"><defs><style>.cls-1{fill:#333;}.cls-2{fill:none;}.cls-3{fill:#5e8e8c;}.cls-4{fill:#6b6b6b;}</style></defs><title>Ativo 1</title><g id="Camada_2" data-name="Camada 2"><g id="Camada_1-2" data-name="Camada 1"><path class="cls-1" d="M105.4,127.47H75A1.52,1.52,0,0,0,73.5,129v4.78A1.52,1.52,0,0,0,75,135.29H105.4a.82.82,0,0,0,.69-.9v-6A.81.81,0,0,0,105.4,127.47Z"/><path class="cls-2" d="M96.71,31.13h1.45a.74.74,0,1,1,0,1.47H96.71A14,14,0,0,0,110,45.86v-7.4a6.65,6.65,0,0,1-5.86-5.86h-1.52a.74.74,0,1,1,0-1.47h1.52A6.66,6.66,0,0,1,110,25.26V23.75a.74.74,0,1,1,1.47,0v1.51a6.67,6.67,0,0,1,5.87,5.87h7.4a14,14,0,0,0-13.27-13.27v1.46a.74.74,0,1,1-1.47,0V17.86A14,14,0,0,0,96.71,31.13Z"/><path class="cls-2" d="M115.84,32.36a4.07,4.07,0,0,0,0-.5,4.4,4.4,0,0,0-.06-.73,5.15,5.15,0,0,0-4.37-4.37,4.4,4.4,0,0,0-.73-.06,4.52,4.52,0,0,0-.74.06,5.17,5.17,0,0,0-4.37,4.37,5.83,5.83,0,0,0-.06.73,6,6,0,0,0,.06.74A5.18,5.18,0,0,0,110,37a6,6,0,0,0,.74.06,4,4,0,0,0,.49,0,.22.22,0,0,1,.24.23h0v1.22a6.66,6.66,0,0,0,5.87-5.86h-1.24A.23.23,0,0,1,115.84,32.36Z"/><path class="cls-2" d="M110,15.61A16.29,16.29,0,0,0,94.46,31.16c0,.23,0,.47,0,.7s0,.48,0,.71A16.28,16.28,0,0,0,110,48.11l.71,0,.7,0A16.29,16.29,0,0,0,127,32.57c0-.23,0-.47,0-.71s0-.47,0-.7a16.29,16.29,0,0,0-15.55-15.55l-.7,0Zm1.44.78a15.51,15.51,0,0,1,14.74,14.74c0,.24,0,.49,0,.73s0,.5,0,.74a15.51,15.51,0,0,1-14.74,14.74l-.73,0-.74,0A15.51,15.51,0,0,1,95.23,32.6c0-.24,0-.49,0-.74s0-.49,0-.73A15.51,15.51,0,0,1,110,16.39c.24,0,.49,0,.74,0S111.2,16.37,111.44,16.39Z"/><path class="cls-2" d="M95.18,16.33a22,22,0,1,0,31.05,0A22,22,0,0,0,95.18,16.33Zm36.19,14.8a.74.74,0,1,1,0,1.47h-1.66v0a19.05,19.05,0,0,1-18.24,18.25h0v1.65a.74.74,0,1,1-1.47,0V50.87h0A19.06,19.06,0,0,1,91.7,32.62v0H90.05a.74.74,0,1,1,0-1.47H91.7v0A19.05,19.05,0,0,1,110,12.86h0V11.2a.74.74,0,1,1,1.47,0v1.66h0A19,19,0,0,1,129.71,31.1v0Z"/><path class="cls-1" d="M166.08,76.13,144.87,54.22c-1.52-1.58-3.42-2.2-4.25-1.4s-2.73.17-4.25-1.4l-.3-.32a31.77,31.77,0,1,0-5.48,5.65l.13.14c1.52,1.57,2.09,3.49,1.26,4.29s-.27,2.73,1.26,4.3l21.2,21.92a4,4,0,0,0,5.6.09l6-5.76A4,4,0,0,0,166.08,76.13ZM126.24,47.39a22,22,0,1,1,0-31.06A22,22,0,0,1,126.24,47.39Z"/><path class="cls-3" d="M131.37,31.13h-1.66v0a19,19,0,0,0-18.24-18.24h0V11.2a.74.74,0,1,0-1.47,0v1.66h0A19.05,19.05,0,0,0,91.7,31.1v0H90.05a.74.74,0,1,0,0,1.47H91.7v0A19.06,19.06,0,0,0,110,50.87h0v1.65a.74.74,0,1,0,1.47,0V50.87h0a19.05,19.05,0,0,0,18.24-18.25v0h1.66a.74.74,0,1,0,0-1.47Zm-20,17-.7,0-.71,0A16.28,16.28,0,0,1,94.46,32.57c0-.23,0-.47,0-.71s0-.47,0-.7A16.29,16.29,0,0,1,110,15.61l.71,0,.7,0A16.29,16.29,0,0,1,127,31.16c0,.23,0,.47,0,.7s0,.48,0,.71A16.29,16.29,0,0,1,111.41,48.11Z"/><path class="cls-4" d="M126.18,31.13a15.51,15.51,0,0,0-14.74-14.74c-.24,0-.49,0-.73,0s-.5,0-.74,0A15.51,15.51,0,0,0,95.23,31.13c0,.24,0,.49,0,.73s0,.5,0,.74A15.51,15.51,0,0,0,110,47.34l.74,0,.73,0A15.51,15.51,0,0,0,126.18,32.6c0-.24,0-.49,0-.74S126.2,31.37,126.18,31.13Zm-14.74,7.33V37.24h0a.22.22,0,0,0-.24-.23,4,4,0,0,1-.49,0A6,6,0,0,1,110,37a5.18,5.18,0,0,1-4.37-4.37,6,6,0,0,1-.06-.74,5.83,5.83,0,0,1,.06-.73A5.17,5.17,0,0,1,110,26.76a4.52,4.52,0,0,1,.74-.06,4.4,4.4,0,0,1,.73.06,5.15,5.15,0,0,1,4.37,4.37,4.4,4.4,0,0,1,.06.73,4.07,4.07,0,0,1,0,.5.23.23,0,0,0,.23.24h1.24A6.66,6.66,0,0,1,111.44,38.46Zm5.87-7.33a6.67,6.67,0,0,0-5.87-5.87V23.75a.74.74,0,1,0-1.47,0v1.51a6.66,6.66,0,0,0-5.86,5.87h-1.52a.74.74,0,1,0,0,1.47h1.52A6.65,6.65,0,0,0,110,38.46v7.4A14,14,0,0,1,96.71,32.6h1.45a.74.74,0,1,0,0-1.47H96.71A14,14,0,0,1,110,17.86v1.46a.74.74,0,1,0,1.47,0V17.86a14,14,0,0,1,13.27,13.27Z"/><path class="cls-1" d="M105.4,73.25H75a1.52,1.52,0,0,0-1.52,1.52v4.78A1.52,1.52,0,0,0,75,81.07H105.4a.82.82,0,0,0,.69-.9v-6A.82.82,0,0,0,105.4,73.25Z"/><path class="cls-1" d="M105.4,86.8H75a1.52,1.52,0,0,0-1.52,1.52V93.1A1.52,1.52,0,0,0,75,94.62H105.4a.82.82,0,0,0,.69-.9v-6A.82.82,0,0,0,105.4,86.8Z"/><path class="cls-1" d="M105.4,100.36H75a1.52,1.52,0,0,0-1.52,1.52v4.78A1.52,1.52,0,0,0,75,108.18H105.4a.82.82,0,0,0,.69-.9v-6A.81.81,0,0,0,105.4,100.36Z"/><path class="cls-1" d="M105.4,113.91H75a1.52,1.52,0,0,0-1.52,1.52v4.78A1.52,1.52,0,0,0,75,121.73H105.4a.82.82,0,0,0,.69-.9v-6A.82.82,0,0,0,105.4,113.91Z"/><path class="cls-1" d="M73.5,61.21V66A1.52,1.52,0,0,0,75,67.51H93.57a1.52,1.52,0,0,0,.68-2.87,36.76,36.76,0,0,1-7-4.59,1.54,1.54,0,0,0-1-.36H75A1.52,1.52,0,0,0,73.5,61.21Z"/><path class="cls-3" d="M68,110.2a3.32,3.32,0,0,0-4.57,1L55.9,123.31l-4.14-3.67a3.32,3.32,0,0,0-4.4,5l7.07,6.27a3.27,3.27,0,0,0,2.2.84l.47,0a3.34,3.34,0,0,0,2.34-1.53l9.65-15.37a3.33,3.33,0,0,0-1-4.58Z"/><path class="cls-4" d="M57.57,135a7.43,7.43,0,0,1-.94.07,6.63,6.63,0,0,1-4.41-1.68l-1.1-1-12.56.05-.06-16.1,7.92,0a6.6,6.6,0,0,1,6.17-.06l2.2,1.66.38.33,4.14-6.6a6.5,6.5,0,0,0-4.64-1.93H38.5a6.57,6.57,0,0,0-6.57,6.56v16.17A6.57,6.57,0,0,0,38.5,139H54.67a6.56,6.56,0,0,0,6.49-5.79A6.72,6.72,0,0,1,57.57,135Z"/><path class="cls-3" d="M68,72.66a3.33,3.33,0,0,0-4.57,1L55.9,85.77,51.76,82.1a3.32,3.32,0,0,0-4.4,5l7.07,6.27a3.31,3.31,0,0,0,2.2.83l.47,0a3.36,3.36,0,0,0,2.34-1.52l9.65-15.38a3.33,3.33,0,0,0-1-4.58Z"/><path class="cls-4" d="M57.57,97.42a6,6,0,0,1-.94.07,6.67,6.67,0,0,1-4.41-1.67l-1.1-1-12.56.05L38.5,78.79l7.92,0a6.66,6.66,0,0,1,6.17-.06l2.2,1.66.38.33,4.14-6.6a6.55,6.55,0,0,0-4.64-1.93H38.5a6.57,6.57,0,0,0-6.57,6.56V94.9a6.57,6.57,0,0,0,6.57,6.57H54.67a6.56,6.56,0,0,0,6.49-5.8A6.58,6.58,0,0,1,57.57,97.42Z"/><path class="cls-3" d="M68,35.13a3.32,3.32,0,0,0-4.57,1L55.9,48.24l-4.14-3.67a3.32,3.32,0,1,0-4.4,5l7.07,6.27a3.31,3.31,0,0,0,2.2.83l.47,0a3.32,3.32,0,0,0,2.34-1.52L69.09,39.7a3.32,3.32,0,0,0-1-4.57Z"/><path class="cls-4" d="M57.57,59.89a7.42,7.42,0,0,1-.94.06,6.67,6.67,0,0,1-4.41-1.67l-1.1-1-12.56,0-.06-16.1,7.92,0a6.63,6.63,0,0,1,6.17-.07l2.2,1.67.38.33,4.14-6.61a6.55,6.55,0,0,0-4.64-1.93H38.5a6.57,6.57,0,0,0-6.57,6.57V57.36a6.57,6.57,0,0,0,6.57,6.57H54.67a6.56,6.56,0,0,0,6.49-5.79A6.72,6.72,0,0,1,57.57,59.89Z"/><path class="cls-1" d="M111.3,68.55v46.57h0v26.94a3.91,3.91,0,0,1-3.91,3.91H29.19a3.92,3.92,0,0,1-3.91-3.91v-110a3.92,3.92,0,0,1,3.91-3.91h45a36.85,36.85,0,0,1,1.65-7.82H29.19A11.75,11.75,0,0,0,17.46,32.06v96.45h-.13v7.82h.13v5.73a11.75,11.75,0,0,0,11.73,11.73h78.2a11.74,11.74,0,0,0,11.73-11.73V67.6A36.54,36.54,0,0,1,111.3,68.55Z"/><path class="cls-3" d="M11.73,128.51a3.92,3.92,0,0,1-3.91-3.91V14.6a3.91,3.91,0,0,1,3.91-3.91H78.39a4.68,4.68,0,0,1,2.07.33,37,37,0,0,1,5.16-6,11.62,11.62,0,0,0-6.75-2.14H11.73A11.74,11.74,0,0,0,0,14.6v110a11.74,11.74,0,0,0,11.73,11.73h5.6v-7.82Z"/></g></g></svg>