<svg xmlns="http://www.w3.org/2000/svg" xmlns:xlink="http://www.w3.org/1999/xlink" viewBox="0 0 147 120"><defs><style>.cls-1{fill:none;}.cls-2{fill:#b4d3d1;}.cls-3{fill:#518989;}.cls-4{fill:#7dadac;}.cls-5{clip-path:url(#clip-path);}.cls-6{fill:#fff;}</style><clipPath id="clip-path"><polygon class="cls-1" points="118.13 13.77 23.08 13.77 23.08 84.35 72.73 105.79 118.13 105.79 118.13 13.77"/></clipPath></defs><title>Ativo 3</title><g id="Camada_2" data-name="Camada 2"><g id="Camada_1-2" data-name="Camada 1"><rect class="cls-2" width="147" height="120"/><polygon class="cls-3" points="46.8 115.21 52.36 120 147 120 147 63.15 129.99 49.95 106.83 31.8 0.58 74.78 46.84 115.21 46.8 115.21"/><polygon class="cls-4" points="74.69 106.63 0.25 74.49 32.38 0.05 107 32 74.69 106.63"/><g class="cls-5"><path class="cls-4" d="M83.93,88.37H67.12a.85.85,0,0,0-.84.85v2.64a.84.84,0,0,0,.84.84H83.93a.45.45,0,0,0,.38-.49V88.87C84.31,88.6,84.14,88.37,83.93,88.37Z"/><path class="cls-4" d="M117.52,60,105.78,47.83c-.84-.87-1.9-1.21-2.35-.77s-1.51.09-2.35-.78l-.17-.17a17.57,17.57,0,1,0-3,3.13l.07.07c.84.87,1.15,1.94.69,2.38s-.14,1.51.7,2.38L111.08,66.2a2.19,2.19,0,0,0,3.1,0l3.29-3.19A2.19,2.19,0,0,0,117.52,60Zm-22-15.9a12.16,12.16,0,1,1,0-17.19A12.17,12.17,0,0,1,95.47,44.06Z"/><path class="cls-4" d="M98.31,35.05h-.92A10.54,10.54,0,0,0,87.29,25h0V24a.41.41,0,0,0-.41-.41.41.41,0,0,0-.41.41v.91h0A10.54,10.54,0,0,0,76.35,35h-.91a.41.41,0,0,0-.41.41.41.41,0,0,0,.41.41h.91A10.55,10.55,0,0,0,86.45,46h0v.92a.42.42,0,0,0,.41.41.41.41,0,0,0,.41-.41V46h0a10.55,10.55,0,0,0,10.1-10.1h.92a.41.41,0,0,0,.41-.41A.42.42,0,0,0,98.31,35.05Zm-11,9.41h-.78a9,9,0,0,1-8.6-8.61c0-.13,0-.26,0-.39s0-.26,0-.39a9,9,0,0,1,8.6-8.6h.78a9,9,0,0,1,8.6,8.6c0,.13,0,.26,0,.39s0,.26,0,.39A9,9,0,0,1,87.26,44.46Z"/><path class="cls-4" d="M95.44,35.05a8.59,8.59,0,0,0-8.16-8.15h-.82a8.59,8.59,0,0,0-8.16,8.15c0,.14,0,.28,0,.41s0,.28,0,.41A8.59,8.59,0,0,0,86.46,44h.82a8.59,8.59,0,0,0,8.16-8.16c0-.13,0-.27,0-.41S95.44,35.19,95.44,35.05Zm-8.16,4.06v-.67h0a.12.12,0,0,0-.14-.12h-.27a2.83,2.83,0,0,1-.41,0A2.86,2.86,0,0,1,84,35.87c0-.13,0-.27,0-.41s0-.27,0-.41a3,3,0,0,1,2.83-2.45,2.71,2.71,0,0,1,.41,0,2.85,2.85,0,0,1,2.45,2.82,2.46,2.46,0,0,1,0,.28.13.13,0,0,0,.13.13h.68A3.67,3.67,0,0,1,87.28,39.11Zm3.24-4.06a3.68,3.68,0,0,0-3.24-3.24V31a.41.41,0,0,0-.41-.41.41.41,0,0,0-.41.41v.84a3.68,3.68,0,0,0-3.24,3.24h-.84a.41.41,0,0,0-.41.41.41.41,0,0,0,.41.41h.84a3.67,3.67,0,0,0,3.24,3.24v4.1a7.77,7.77,0,0,1-7.34-7.34h.81a.41.41,0,0,0,.41-.41.42.42,0,0,0-.41-.41h-.81a7.78,7.78,0,0,1,7.34-7.34v.81a.42.42,0,0,0,.41.41.41.41,0,0,0,.41-.41v-.81a7.78,7.78,0,0,1,7.34,7.34Z"/><path class="cls-4" d="M83.93,58.37H67.12a.84.84,0,0,0-.84.84v2.64a.85.85,0,0,0,.84.85H83.93c.21,0,.38-.23.38-.5V58.86A.45.45,0,0,0,83.93,58.37Z"/><path class="cls-4" d="M83.93,65.87H67.12a.85.85,0,0,0-.84.84v2.65a.85.85,0,0,0,.84.84H83.93c.21,0,.38-.23.38-.5V66.37C84.31,66.09,84.14,65.87,83.93,65.87Z"/><path class="cls-4" d="M83.93,73.37H67.12a.85.85,0,0,0-.84.84v2.65a.85.85,0,0,0,.84.84H83.93c.21,0,.38-.22.38-.5V73.87C84.31,73.59,84.14,73.37,83.93,73.37Z"/><path class="cls-4" d="M83.93,80.87H67.12a.85.85,0,0,0-.84.84v2.65a.85.85,0,0,0,.84.84H83.93c.21,0,.38-.22.38-.5V81.37C84.31,81.1,84.14,80.87,83.93,80.87Z"/><path class="cls-4" d="M66.28,51.71v2.64a.84.84,0,0,0,.84.84H77.38a.84.84,0,0,0,.38-1.59,20.27,20.27,0,0,1-3.86-2.54.88.88,0,0,0-.54-.2H67.12A.85.85,0,0,0,66.28,51.71Z"/><path class="cls-4" d="M63.25,78.82a1.82,1.82,0,0,0-2.52.58l-4.19,6.67-2.3-2a1.83,1.83,0,0,0-2.43,2.75l3.91,3.47a1.83,1.83,0,0,0,1.22.46,1.14,1.14,0,0,0,.26,0,1.79,1.79,0,0,0,1.29-.84l5.35-8.51a1.84,1.84,0,0,0-.59-2.53Z"/><path class="cls-4" d="M57.46,92.52a3,3,0,0,1-.52,0,3.7,3.7,0,0,1-2.44-.93l-.61-.53-7,0,0-8.91,4.39,0a3.67,3.67,0,0,1,3.41,0l1.23.92.2.18,2.3-3.65a3.63,3.63,0,0,0-2.57-1.07h-9a3.64,3.64,0,0,0-3.63,3.63v9a3.64,3.64,0,0,0,3.63,3.64h9a3.64,3.64,0,0,0,3.59-3.21A3.63,3.63,0,0,1,57.46,92.52Z"/><path class="cls-4" d="M63.25,58a1.83,1.83,0,0,0-2.52.59L56.54,65.3l-2.3-2A1.83,1.83,0,1,0,51.81,66l3.91,3.46a1.79,1.79,0,0,0,1.22.47l.26,0a1.85,1.85,0,0,0,1.29-.84l5.35-8.51A1.86,1.86,0,0,0,63.25,58Z"/><path class="cls-4" d="M57.46,71.75a4.53,4.53,0,0,1-.52,0,3.69,3.69,0,0,1-2.44-.92l-.61-.54-7,0,0-8.91,4.39,0a3.64,3.64,0,0,1,3.41,0l1.23.91.2.19,2.3-3.66a3.63,3.63,0,0,0-2.57-1.07h-9a3.64,3.64,0,0,0-3.63,3.64v8.95A3.64,3.64,0,0,0,46.9,74h9a3.63,3.63,0,0,0,3.59-3.2A3.7,3.7,0,0,1,57.46,71.75Z"/><path class="cls-4" d="M63.25,37.27a1.82,1.82,0,0,0-2.52.58l-4.19,6.68-2.3-2a1.83,1.83,0,1,0-2.43,2.75l3.91,3.47a1.83,1.83,0,0,0,1.22.46h.26a1.83,1.83,0,0,0,1.29-.85l5.35-8.51a1.84,1.84,0,0,0-.59-2.53Z"/><path class="cls-4" d="M57.46,51a3,3,0,0,1-.52,0,3.7,3.7,0,0,1-2.44-.93l-.61-.53-7,0,0-8.91,4.39,0a3.67,3.67,0,0,1,3.41,0l1.23.92.2.18,2.3-3.65A3.63,3.63,0,0,0,55.86,37h-9a3.64,3.64,0,0,0-3.63,3.63v9a3.64,3.64,0,0,0,3.63,3.64h9A3.63,3.63,0,0,0,59.45,50,3.69,3.69,0,0,1,57.46,51Z"/><path class="cls-4" d="M87.2,55.77V81.54h0V96.45A2.17,2.17,0,0,1,85,98.62H41.76a2.17,2.17,0,0,1-2.17-2.17V35.57a2.17,2.17,0,0,1,2.17-2.16H66.67a20.56,20.56,0,0,1,.91-4.33H41.76a6.5,6.5,0,0,0-6.49,6.49V89h-.08v4.33h.08v3.17a6.5,6.5,0,0,0,6.49,6.5H85a6.5,6.5,0,0,0,6.49-6.5V55.24A19.89,19.89,0,0,1,87.2,55.77Z"/><path class="cls-4" d="M32.09,89a2.16,2.16,0,0,1-2.16-2.16V25.91a2.17,2.17,0,0,1,2.16-2.17H69a2.6,2.6,0,0,1,1.14.19A20.2,20.2,0,0,1,73,20.6a6.45,6.45,0,0,0-3.74-1.19H32.09a6.5,6.5,0,0,0-6.49,6.5V86.79a6.5,6.5,0,0,0,6.49,6.49h3.1V89Z"/><path class="cls-6" d="M82.46,86.9H65.64a.84.84,0,0,0-.84.84v2.64a.85.85,0,0,0,.84.85H82.46c.21,0,.38-.23.38-.5V87.39A.45.45,0,0,0,82.46,86.9Z"/><path class="cls-6" d="M116,58.49,104.3,46.36c-.84-.87-1.89-1.22-2.35-.78s-1.51.1-2.35-.77l-.17-.18a17.58,17.58,0,1,0-3,3.13l.07.08c.84.87,1.15,1.93.7,2.37s-.15,1.51.69,2.38L109.6,64.72a2.19,2.19,0,0,0,3.1,0L116,61.59A2.19,2.19,0,0,0,116,58.49ZM94,42.58a12.16,12.16,0,1,1,0-17.19A12.17,12.17,0,0,1,94,42.58Z"/><path class="cls-6" d="M96.83,33.58h-.92v0A10.53,10.53,0,0,0,85.82,23.47h0v-.92a.41.41,0,1,0-.81,0v.92h0A10.52,10.52,0,0,0,74.88,33.56v0H74a.41.41,0,1,0,0,.81h.92v0A10.52,10.52,0,0,0,85,44.5h0v.92a.41.41,0,1,0,.81,0V44.5h0A10.53,10.53,0,0,0,95.91,34.41v0h.92a.41.41,0,1,0,0-.81Zm-11,9.4H85a9,9,0,0,1-8.6-8.6c0-.13,0-.26,0-.39s0-.27,0-.4A9,9,0,0,1,85,25h.79a9,9,0,0,1,8.6,8.6c0,.13,0,.26,0,.4s0,.26,0,.39A9,9,0,0,1,85.79,43Z"/><path class="cls-6" d="M94,33.58a8.59,8.59,0,0,0-8.16-8.16H85a8.59,8.59,0,0,0-8.16,8.16c0,.13,0,.27,0,.41s0,.27,0,.4A8.59,8.59,0,0,0,85,42.55h.81A8.59,8.59,0,0,0,94,34.39c0-.13,0-.27,0-.4S94,33.71,94,33.58ZM85.8,37.64V37h0a.12.12,0,0,0-.13-.12h-.28a2.6,2.6,0,0,1-.4,0,2.86,2.86,0,0,1-2.42-2.42,2.69,2.69,0,0,1,0-.4,2.73,2.73,0,0,1,0-.41A2.86,2.86,0,0,1,85,31.16a2.6,2.6,0,0,1,.4,0,2.73,2.73,0,0,1,.41,0,2.86,2.86,0,0,1,2.42,2.42,2.73,2.73,0,0,1,0,.41,2.44,2.44,0,0,1,0,.27.12.12,0,0,0,.12.13h.69A3.7,3.7,0,0,1,85.8,37.64Zm3.25-4.06a3.7,3.7,0,0,0-3.25-3.25v-.84a.41.41,0,1,0-.81,0v.84a3.69,3.69,0,0,0-3.25,3.25H80.9a.41.41,0,1,0,0,.81h.84A3.69,3.69,0,0,0,85,37.64v4.09a7.77,7.77,0,0,1-7.35-7.34h.81a.41.41,0,1,0,0-.81h-.81A7.77,7.77,0,0,1,85,26.24V27a.41.41,0,1,0,.81,0v-.8a7.75,7.75,0,0,1,7.34,7.34Z"/><path class="cls-6" d="M82.46,56.89H65.64a.85.85,0,0,0-.84.84v2.65a.85.85,0,0,0,.84.84H82.46c.21,0,.38-.22.38-.5V57.39C82.84,57.11,82.67,56.89,82.46,56.89Z"/><path class="cls-6" d="M82.46,64.39H65.64a.85.85,0,0,0-.84.84v2.65a.85.85,0,0,0,.84.84H82.46c.21,0,.38-.22.38-.5V64.89C82.84,64.61,82.67,64.39,82.46,64.39Z"/><path class="cls-6" d="M82.46,71.89H65.64a.85.85,0,0,0-.84.85v2.64a.85.85,0,0,0,.84.84H82.46c.21,0,.38-.22.38-.5V72.39C82.84,72.12,82.67,71.89,82.46,71.89Z"/><path class="cls-6" d="M82.46,79.4H65.64a.84.84,0,0,0-.84.84v2.64a.84.84,0,0,0,.84.84H82.46a.45.45,0,0,0,.38-.49V79.89A.45.45,0,0,0,82.46,79.4Z"/><path class="cls-6" d="M64.8,50.23v2.64a.85.85,0,0,0,.84.85H75.91a.85.85,0,0,0,.38-1.6,20.47,20.47,0,0,1-3.87-2.53.82.82,0,0,0-.54-.2H65.64A.84.84,0,0,0,64.8,50.23Z"/><path class="cls-6" d="M61.78,77.34a1.84,1.84,0,0,0-2.53.58L55.06,84.6l-2.29-2a1.83,1.83,0,0,0-2.44,2.74l3.91,3.47a1.85,1.85,0,0,0,1.22.46h.26a1.85,1.85,0,0,0,1.3-.85l5.34-8.51a1.83,1.83,0,0,0-.58-2.53Z"/><path class="cls-6" d="M56,91.05a4.41,4.41,0,0,1-.52,0A3.64,3.64,0,0,1,53,90.16l-.61-.54-7,0,0-8.92h4.38a3.69,3.69,0,0,1,3.42,0l1.22.92.21.19L57,78.13a3.63,3.63,0,0,0-2.57-1.07h-9a3.64,3.64,0,0,0-3.64,3.64v9a3.64,3.64,0,0,0,3.64,3.63h9A3.62,3.62,0,0,0,58,90.08,3.7,3.7,0,0,1,56,91.05Z"/><path class="cls-6" d="M61.78,56.57a1.83,1.83,0,0,0-2.53.58l-4.19,6.67-2.29-2a1.84,1.84,0,0,0-2.44,2.75L54.24,68a1.85,1.85,0,0,0,1.22.46l.26,0a1.81,1.81,0,0,0,1.3-.84l5.34-8.51a1.83,1.83,0,0,0-.58-2.53Z"/><path class="cls-6" d="M56,70.27a4.38,4.38,0,0,1-.52,0A3.65,3.65,0,0,1,53,69.38l-.61-.54-7,0,0-8.91,4.38,0a3.66,3.66,0,0,1,3.42,0l1.22.92.21.18L57,57.36a3.63,3.63,0,0,0-2.57-1.07h-9a3.64,3.64,0,0,0-3.64,3.63v9a3.64,3.64,0,0,0,3.64,3.64h9A3.63,3.63,0,0,0,58,69.3,3.7,3.7,0,0,1,56,70.27Z"/><path class="cls-6" d="M61.78,35.79a1.84,1.84,0,0,0-2.53.58l-4.19,6.68-2.29-2a1.83,1.83,0,1,0-2.44,2.74l3.91,3.47a1.86,1.86,0,0,0,1.22.47l.26,0a1.85,1.85,0,0,0,1.3-.85l5.34-8.51a1.84,1.84,0,0,0-.58-2.53Z"/><path class="cls-6" d="M56,49.5a4.41,4.41,0,0,1-.52,0A3.64,3.64,0,0,1,53,48.61l-.61-.54-7,0,0-8.91,4.38,0a3.69,3.69,0,0,1,3.42,0l1.22.92.21.19L57,36.58a3.63,3.63,0,0,0-2.57-1.07h-9a3.64,3.64,0,0,0-3.64,3.64v9a3.64,3.64,0,0,0,3.64,3.63h9A3.62,3.62,0,0,0,58,48.53,3.7,3.7,0,0,1,56,49.5Z"/><path class="cls-6" d="M85.72,54.29V80.07h0V95a2.16,2.16,0,0,1-2.16,2.16H40.28A2.16,2.16,0,0,1,38.12,95V34.1a2.17,2.17,0,0,1,2.16-2.17H65.19a20.7,20.7,0,0,1,.91-4.33H40.28a6.5,6.5,0,0,0-6.49,6.5V87.47h-.08V91.8h.08V95a6.5,6.5,0,0,0,6.49,6.49H83.56A6.5,6.5,0,0,0,90.05,95V53.77A20.52,20.52,0,0,1,85.72,54.29Z"/><path class="cls-6" d="M30.61,87.47a2.16,2.16,0,0,1-2.16-2.16V24.43a2.16,2.16,0,0,1,2.16-2.16h36.9a2.73,2.73,0,0,1,1.14.19,20.69,20.69,0,0,1,2.86-3.33,6.42,6.42,0,0,0-3.74-1.18H30.61a6.5,6.5,0,0,0-6.49,6.49V85.31a6.5,6.5,0,0,0,6.49,6.49h3.1V87.47Z"/></g></g></g></svg>