<svg xmlns="http://www.w3.org/2000/svg" viewBox="0 0 146.67 146.67"><defs><style>.cls-1{fill:#2b2b2b;}.cls-2,.cls-3{fill:#fff;}.cls-3{fill-rule:evenodd;}</style></defs><title>Ativo 2</title><g id="Camada_2" data-name="Camada 2"><g id="Camada_11" data-name="Camada 11"><path class="cls-1" d="M146.67,73.33a73.34,73.34,0,1,0-94.94,70.06l6.1-29.2s3.61-6.79,15.25-6.79,15.79,6.38,15.79,6.38l6.07,29.61A73.33,73.33,0,0,0,146.67,73.33Z"/><path class="cls-1" d="M73,109.19c-10.45,0-13.68,6.09-13.68,6.09L53.57,144l1.27.36a73.58,73.58,0,0,0,37,0c.4-.1.79-.22,1.18-.33l-5.82-29.06S83.48,109.19,73,109.19Z"/><path class="cls-2" d="M73.08,107.4c-11.64,0-15.25,6.79-15.25,6.79l-6.1,29.2c.46.15.92.3,1.39.43l.45.13,5.79-28.67s3.23-6.09,13.68-6.09,14.17,5.72,14.17,5.72L93,144l.61-.17,1.3-.41-6.07-29.61S84.72,107.4,73.08,107.4Z"/><path class="cls-3" d="M85.05,122.69H78.43l-.15-1.51L71,121.9h0l.07.79H64.43l-5,16.05H66l6.12,2.64,1.15-2.64h6.89ZM74.61,137.77l.41-3.12h0l-6.73-2.91-2.6,6H60.78l4.36-14.12h5.13l1.44,5.55-.36-3.64.36,3.64,7.29-.72-.47-4.83h5.22l-4.31,14.12Z"/><path class="cls-2" d="M77.19,43.58s-.93-16.32-3.08-22.52a6.25,6.25,0,1,0-2.74-.12h0c-2.18,6.11-3.12,22.63-3.12,22.63H24v59.5h98.67V43.58Zm-9.4-28.66A5.22,5.22,0,1,1,73,20.14,5.22,5.22,0,0,1,67.79,14.92Zm4.29,6.25s0-.05,0-.08a5.62,5.62,0,0,0,.92.08l.35,0v0a141.25,141.25,0,0,1,1.83,22.41H70.25A141.25,141.25,0,0,1,72.08,21.17Zm49.42,80.26H25.17V45.24H121.5Z"/><path class="cls-2" d="M114.17,48.71H32.5V98h81.67ZM63.81,93.18H56V85.6h7.81Zm8.83-25.63a8.54,8.54,0,0,1-1.13,2.51,11.08,11.08,0,0,1-1.85,2.12c-.74.65-1.57,1.33-2.49,2A18.4,18.4,0,0,0,65.11,76a6.29,6.29,0,0,0-1.18,1.77,6.48,6.48,0,0,0-.52,1.94A19.52,19.52,0,0,0,63.29,82H56.23a23.27,23.27,0,0,1,.52-5.49,9.1,9.1,0,0,1,2-3.82,9.54,9.54,0,0,1,2-1.8,18.3,18.3,0,0,0,2-1.59,8.22,8.22,0,0,0,1.56-1.88A5.09,5.09,0,0,0,65,64.71q0-2.83-1.56-4a6.14,6.14,0,0,0-3.71-1.13c-2,0-3.45.57-4.22,1.71A9.84,9.84,0,0,0,54,65.93H46.57a13.69,13.69,0,0,1,.92-5.15,10.94,10.94,0,0,1,2.64-3.94,11.55,11.55,0,0,1,4.1-2.49,15.47,15.47,0,0,1,5.3-.87c4.17,0,7.45.85,9.87,2.55S73,60.49,73,64.31A12.56,12.56,0,0,1,72.64,67.55Zm19.9,25.63H84.73V85.6h7.81ZM92.4,69.72c-.37,3.91-.94,8.19-1.71,12.81h-4c-.77-4.62-1.34-8.91-1.71-12.84s-.55-7.54-.55-10.82c0-.78,0-1.51,0-2.2a8.56,8.56,0,0,1,.26-1.91h8c.07.65.13,1.34.17,2.05S93,58.27,93,59C93,62.24,92.76,65.8,92.4,69.72Z"/></g></g></svg>